<svg xmlns="http://www.w3.org/2000/svg" fill="none" viewBox="0 0.45 120 36.1">
<path d="M25.5378 9.0638V20.6725C25.5378 20.8607 25.463 21.0411 25.33 21.1742C25.1969 21.3073 25.0165 21.382 24.8283 21.382H21.1637C20.9756 21.3819 20.7952 21.3071 20.6621 21.1741C20.5291 21.0411 20.4543 20.8606 20.4542 20.6725V1.79038C20.4542 1.60221 20.529 1.42174 20.662 1.28868C20.7951 1.15562 20.9756 1.08087 21.1637 1.08087H24.5549C24.743 1.08087 24.9235 1.15562 25.0566 1.28868C25.1896 1.42174 25.2644 1.60221 25.2644 1.79038V4.44948C25.2644 4.44948 26.4766 0.656355 30.0742 0.656355C30.0742 0.656355 33.6327 0.226206 35.0796 4.17575C35.0796 4.17575 36.2918 0.656355 39.9676 0.656355C39.9676 0.656355 45.4341 0.331319 45.4341 5.98769L45.4757 9.10291V20.7116C45.4757 20.8998 45.401 21.0802 45.2679 21.2133C45.1349 21.3464 44.9544 21.4211 44.7662 21.4211H41.1013C40.9132 21.421 40.7328 21.3463 40.5997 21.2132C40.4667 21.0802 40.3919 20.8997 40.3918 20.7116L40.3584 8.04709C40.4625 5.17933 38.1426 5.38799 38.1426 5.38799C35.2229 5.44023 35.5038 9.10291 35.5038 9.10291V20.7116C35.5038 20.8998 35.429 21.0802 35.296 21.2133C35.1629 21.3464 34.9824 21.4211 34.7943 21.4211H31.1297C30.9416 21.421 30.7612 21.3463 30.6281 21.2132C30.4951 21.0802 30.4203 20.8997 30.4202 20.7116V8.33365C30.4202 8.33365 30.6345 5.36171 28.0273 5.36171C28.0276 5.36171 25.4468 5.02291 25.5378 9.0638ZM120 9.02908V20.6375C120 20.8256 119.925 21.006 119.792 21.1391C119.659 21.2721 119.479 21.3469 119.29 21.347L115.479 21.4208C115.291 21.4207 115.111 21.3459 114.978 21.2129C114.845 21.0799 114.77 20.8994 114.77 20.7113V8.33365C114.77 8.33365 114.984 5.36171 112.377 5.36171C112.377 5.36171 109.887 5.23908 109.887 9.89876V20.6722C109.887 20.8603 109.812 21.0408 109.679 21.1738C109.546 21.3068 109.366 21.3816 109.178 21.3817H105.513C105.325 21.3816 105.144 21.3068 105.011 21.1738C104.878 21.0408 104.803 20.8603 104.803 20.6722V1.79038C104.803 1.60223 104.878 1.42182 105.011 1.28877C105.144 1.15573 105.325 1.08096 105.513 1.08087H108.904C109.092 1.08087 109.273 1.15562 109.406 1.28868C109.539 1.42174 109.614 1.60221 109.614 1.79038V4.44948C109.614 4.44948 110.826 0.656355 114.423 0.656355C114.423 0.656355 118.277 0.0716658 119.575 4.10224C119.575 4.10192 120 4.93344 120 9.02908ZM93.5404 0.578146C88.8541 0.578146 85.0547 4.52769 85.0547 11.1754C85.0547 17.0283 87.9876 21.7727 93.5404 21.7727C98.7804 21.7727 102.026 17.0283 102.026 11.1754C102.026 4.645 98.227 0.578146 93.5404 0.578146ZM96.4982 11.4101C96.4982 13.9128 96.1854 15.2423 96.1854 15.2423C95.7402 17.8879 93.8197 17.8917 93.5366 17.8776C93.231 17.8898 91.2942 17.8623 90.8935 15.2423C90.8935 15.2423 90.5806 13.9128 90.5806 11.4101V10.9931C90.5806 8.49038 90.8935 7.16083 90.8935 7.16083C91.2942 4.54083 93.2313 4.5133 93.5366 4.52519C93.8197 4.51111 95.7402 4.51455 96.1854 7.16083C96.1854 7.16083 96.4982 8.49038 96.4982 10.9931V11.4101ZM82.9278 4.4232V1.71405C82.9277 1.5259 82.8529 1.34548 82.7199 1.21244C82.5868 1.0794 82.4064 1.00462 82.2182 1.00454H70.1053C69.9171 1.00454 69.7366 1.07929 69.6036 1.21235C69.4705 1.34541 69.3957 1.52588 69.3957 1.71405V4.40224C69.3958 4.59039 69.4706 4.77081 69.6036 4.90385C69.7367 5.03689 69.9171 5.11167 70.1053 5.11176H76.4236L68.9449 15.9609C68.9449 15.9609 68.6503 16.4007 68.66 16.8866V20.1867C68.66 20.1867 68.6112 21.3182 69.8944 20.6615C69.8944 20.6615 72.1737 19.2844 75.9956 19.2844C75.9956 19.2844 79.77 19.2375 82.2864 20.7801C82.2864 20.7801 83.331 21.255 83.331 20.2108V17.3383C83.331 17.3383 83.4258 16.5781 82.4288 16.1035C82.4288 16.1035 79.5325 14.5131 75.7344 14.774L82.9278 4.4232ZM17.6259 18.0053L16.4787 16.259C16.1136 15.6071 16.1399 14.8769 16.1399 14.8769V6.82171C16.2963 -0.138873 8.57961 0.460833 8.57961 0.460833C1.71976 0.460833 0.706483 5.79937 0.706483 5.79937C0.420552 6.8727 1.25207 6.89867 1.25207 6.89867L4.6041 7.23872C4.6041 7.23872 5.17565 7.36949 5.38368 6.68907C5.38368 6.68907 5.8251 4.36001 8.29368 4.36001C10.9797 4.36001 10.9518 6.6653 10.9518 6.6653V8.59518C5.58984 8.77443 3.10499 10.2629 3.10499 10.2629C-0.205745 12.1399 0.00260382 15.868 0.00260382 15.868C0.00260382 21.942 5.79006 21.6811 5.79006 21.6811C9.49184 21.6811 11.6817 18.97 11.6817 18.97C12.3333 20.1175 13.5327 21.2118 13.5327 21.2118C14.1328 21.8625 14.7581 21.3163 14.7581 21.3163L17.4695 18.9963C18.0688 18.5527 17.6259 18.0053 17.6259 18.0053ZM7.59668 17.9302C5.85544 17.9302 5.20818 16.1999 5.49724 14.4993C5.78662 12.7987 7.28948 11.4623 10.9522 11.5014V12.5353C11.082 17.0521 9.04605 17.9302 7.59668 17.9302ZM66.3237 18.0053L65.1768 16.259C64.8118 15.6071 64.8377 14.8769 64.8377 14.8769V6.82171C64.9941 -0.138873 57.2774 0.460833 57.2774 0.460833C50.4176 0.460833 49.4043 5.79937 49.4043 5.79937C49.1184 6.8727 49.9499 6.89867 49.9499 6.89867L53.3019 7.23872C53.3019 7.23872 53.8735 7.36949 54.0815 6.68907C54.0815 6.68907 54.5229 4.36001 56.9915 4.36001C59.6775 4.36001 59.6497 6.6653 59.6497 6.6653V8.59518C54.288 8.77443 51.8028 10.2629 51.8028 10.2629C48.4921 12.1399 48.7004 15.868 48.7004 15.868C48.7004 21.942 54.4879 21.6811 54.4879 21.6811C58.1897 21.6811 60.3795 18.97 60.3795 18.97C61.0315 20.1175 62.2303 21.2118 62.2303 21.2118C62.8303 21.8625 63.4559 21.3163 63.4559 21.3163L66.167 18.9963C66.7667 18.5527 66.3237 18.0053 66.3237 18.0053ZM56.2945 17.9302C54.5533 17.9302 53.906 16.1999 54.1951 14.4993C54.4844 12.7987 55.9873 11.4623 59.6497 11.5014V12.5353C59.7798 17.0521 57.7442 17.9302 56.2945 17.9302Z" fill="#BBBBBB"/>
<path d="M75.5512 33.2521C75.5512 33.2521 75.2446 33.7855 75.6213 33.9046C75.6213 33.9046 76.0467 34.0708 76.5773 33.5784C76.5773 33.5784 80.4468 30.1982 80.54 24.0441C80.54 24.0441 80.5685 23.2754 80.26 23.0652C80.26 23.0652 79.0478 21.9928 74.6887 22.3191C74.6887 22.3191 70.889 22.5756 68.8146 24.4173C68.8146 24.4173 68.6282 24.5803 68.6282 24.7899C68.6282 24.7899 68.5834 25.2426 69.7237 25.0464C69.7237 25.0464 73.5231 24.5099 75.7843 24.7899C75.7843 24.7899 76.9502 24.9297 77.2765 25.3264C77.2765 25.3264 77.8127 25.7694 77.5327 27.2375C77.5327 27.2381 76.7631 30.9678 75.5512 33.2521Z" fill="#BBBBBB"/>
<path d="M74.7846 27.3478C74.7846 27.3478 75.352 28.0829 74.4364 28.7171C74.4364 28.7171 64.655 36.5411 48.2311 36.5411C48.2311 36.5411 31.3248 37.3751 17.2081 24.5488C17.2081 24.5488 16.7132 24.1143 17.0204 23.7104C17.0204 23.7104 17.2951 23.3388 18.0062 23.743C18.0062 23.743 31.2857 32.0178 48.7263 32.0178C48.7263 32.0178 60.8487 32.487 73.2839 27.1688C73.2839 27.1688 74.2746 26.6555 74.7846 27.3478Z" fill="#BBBBBB"/>
</svg>