<svg xmlns="http://www.w3.org/2000/svg" fill="none" viewBox="0 0.43 45 52.13">
<g clip-path="url(#clip0_1698_7110)">
<path d="M22.1901 13.0471C25.0692 13.0471 27.5949 11.9228 29.7672 9.67417C31.9395 7.42555 33.0257 4.81079 33.0257 1.8299C33.0257 1.50252 32.9998 1.03728 32.9481 0.434204C32.5688 0.485897 32.2844 0.528974 32.0947 0.563436C29.4397 0.942515 27.1036 2.24344 25.0864 4.46617C23.0693 6.68895 22.0608 9.06681 22.0608 11.5998C22.0608 11.8926 22.1038 12.3751 22.1901 13.0471ZM32.5085 52.5658C34.5601 52.5658 36.8272 51.1615 39.3099 48.3529C41.7926 45.5443 43.689 42.2446 44.9993 38.4538C40.1202 35.9381 37.6807 32.3283 37.6807 27.6243C37.6807 23.6957 39.6547 20.3357 43.6028 17.5443C40.8616 14.1154 37.241 12.4009 32.7413 12.4009C30.8448 12.4009 29.1121 12.6852 27.5433 13.2539L26.5605 13.6157L25.2416 14.1326C24.3796 14.46 23.5951 14.6238 22.8883 14.6238C22.3366 14.6238 21.6124 14.4342 20.716 14.0551L19.7074 13.6416L18.7506 13.2539C17.354 12.668 15.8541 12.3751 14.2508 12.3751C9.95789 12.3751 6.50979 13.8225 3.90645 16.7173C1.30311 19.612 0.00146484 23.4286 0.00146484 28.1671C0.00146484 34.8354 2.08755 40.9954 6.25978 46.6471C9.15621 50.5929 11.8026 52.5658 14.199 52.5658C15.2163 52.5658 16.2248 52.3676 17.2248 51.9713L18.4919 51.4544L19.5006 51.0926C20.9143 50.5929 22.2159 50.343 23.4055 50.343C24.6641 50.343 26.1123 50.6618 27.7501 51.2993L28.5518 51.6095C30.2241 52.247 31.5431 52.5658 32.5085 52.5658Z" fill="#BBBBBB"/>
</g>
<defs>
<clipPath id="clip0_1698_7110">
<rect width="45" height="52.1316" fill="white" transform="translate(0 0.434204)"/>
</clipPath>
</defs>
</svg>