<svg xmlns="http://www.w3.org/2000/svg" fill="none" viewBox="0 0.64 100 29.73">
<path fill-rule="evenodd" clip-rule="evenodd" d="M99.9998 30.3627V0.637451H69.0036V30.3627H99.9998ZM92.9363 9.17412C90.5486 7.80203 88.1599 7.0906 85.924 7.0906C83.5364 7.0906 81.5539 7.85281 80.03 9.37724C78.4548 10.8509 77.6423 12.68 77.6423 14.9666C77.6423 17.1512 78.4548 19.031 79.9797 20.5565C81.6052 21.9783 83.5364 22.6903 85.8738 22.6903C88.3635 22.6903 90.8025 21.9281 93.1907 20.4031V23.6048C90.9543 24.8241 88.4646 25.4339 85.7209 25.4339C83.3835 25.4339 81.4523 24.9769 79.8258 24.0624C78.2694 23.1145 76.9628 21.8075 76.0153 20.2508C75.1007 18.5243 74.5924 16.7962 74.5924 14.9666C74.5924 11.9178 75.6593 9.42802 77.8444 7.39527C79.9792 5.36253 82.6218 4.29564 85.7209 4.29564C87.9562 4.29564 90.3444 4.85474 92.9357 6.02318V9.17412H92.9363ZM65.549 0.637451H34.5527V30.3627H65.549V0.637451ZM44.0547 5.05786H49.441C51.1685 5.05786 52.4904 5.26097 53.4546 5.71851C54.4205 6.22683 55.1314 6.83617 55.5895 7.59892C56.0967 8.41191 56.3517 9.32646 56.3517 10.3933C56.3517 12.4256 55.335 13.8484 53.2007 14.7127C54.7252 14.9666 55.9444 15.5765 56.8087 16.5926C57.6719 17.5071 58.0792 18.6761 58.1295 19.9969C58.0792 21.0135 57.8248 21.9783 57.317 22.7919C56.7574 23.6048 55.9952 24.266 54.9283 24.8246C53.8614 25.3329 52.5909 25.5868 51.0157 25.5868H44.0547V5.05786Z" fill="#BBBBBB"/>
<path fill-rule="evenodd" clip-rule="evenodd" d="M48.9334 13.849C50.5081 13.849 51.6263 13.5443 52.2869 12.9852C52.9476 12.3245 53.3025 11.5623 53.3025 10.597C53.3025 8.66634 52.033 7.6497 49.5427 7.6497H47.0027V13.849H48.9334ZM49.7464 16.491H47.0027V22.9437H49.95C51.3216 22.9437 52.4398 22.8426 53.1507 22.639C53.8113 22.283 54.2689 21.8768 54.5736 21.4198C54.8782 20.9114 55.0819 20.3529 55.0819 19.743C55.0306 19.1331 54.8782 18.5735 54.5222 18.0662C54.2176 17.5066 53.7098 17.1004 52.9978 16.846C52.3382 16.5926 51.22 16.4403 49.7464 16.491ZM30.9963 0.637451H0V30.3627H30.9963V0.637451ZM9.45176 25.5863V5.05786H14.838C16.5656 5.05786 17.8361 5.26097 18.8014 5.71851C19.7667 6.17552 20.529 6.83618 20.9865 7.64917C21.4943 8.41138 21.7487 9.32592 21.7995 10.3928C21.7487 12.425 20.7326 13.8479 18.5983 14.7624C20.1735 15.0169 21.3419 15.6262 22.2063 16.5915C23.07 17.5061 23.5276 18.6751 23.5276 19.9958C23.5276 21.0627 23.2737 22.0286 22.7146 22.7908C22.1555 23.654 21.3933 24.3152 20.3772 24.8235C19.3103 25.3319 17.989 25.5857 16.4138 25.5857L9.45176 25.5863Z" fill="#BBBBBB"/>
<path fill-rule="evenodd" clip-rule="evenodd" d="M14.9404 7.64966H12.3999V13.8489H14.3813C15.9058 13.8489 17.0234 13.5442 17.6846 12.9851C18.3447 12.3753 18.7007 11.5623 18.7007 10.6477C18.7002 8.66576 17.4302 7.64966 14.9404 7.64966ZM15.1435 16.491H12.3999V22.9436H15.2959C16.8203 22.9436 17.938 22.8426 18.5986 22.6389C19.1577 22.3851 19.6147 22.0291 19.9702 21.5207C20.2754 20.9622 20.4277 20.4026 20.4785 19.743C20.4277 19.031 20.2241 18.4724 19.9194 18.0662C19.5708 17.5036 19.0287 17.0877 18.395 16.8967C17.6841 16.5926 16.5664 16.491 15.1435 16.491Z" fill="#BBBBBB"/>
</svg>