<svg xmlns="http://www.w3.org/2000/svg" fill="none" viewBox="0.46 0.49 110 36.02">
<path d="M42.7021 31.9108C38.609 29.2741 33.0541 28.8115 24.0957 31.2969C14.5454 33.5412 11.3612 34.9798 7.17936 32.0918C5.57281 30.6731 4.99682 28.3888 5.42692 25.0984C6.42449 19.7345 9.12031 14.5726 13.9089 8.84684C16.5816 5.86831 19.061 3.31219 22.3348 2.28575C24.8439 1.64184 24.6093 3.61372 24.3057 3.89574C23.9853 3.89574 23.4471 3.9462 23.0312 4.21763C22.6936 4.47943 21.767 5.32478 21.7172 6.4619C21.6455 8.20265 23.4469 7.84034 24.2239 6.88458C25.0614 5.80754 26.2992 3.74504 25.3255 1.82279C24.9174 1.13858 24.2123 0.665722 23.3369 0.504709C20.3391 0.333384 17.5473 1.76242 14.9705 3.3423C9.3355 7.25679 4.82784 12.6809 2.27721 18.6182C0.806782 22.2004 -0.523119 27.3319 1.47022 31.5085C3.01242 34.4065 6.21384 35.9458 10.0335 35.6239C12.7124 35.3424 15.9517 34.4766 18.1304 33.9538C20.3092 33.4301 31.4616 29.5966 35.126 36.2688C35.126 36.2688 36.3445 33.9034 39.3897 33.8529C41.8933 33.6219 45.5052 34.5777 48.1353 36.5094C47.259 35.1916 44.7747 33.2494 42.7021 31.9108Z" fill="#BBBBBB"/>
<path d="M25.2333 9.52104C23.1474 8.1525 18.9551 10.7689 15.5972 15.2567C12.5265 19.2823 11.2006 23.961 12.6437 26.1246C14.7901 28.6704 18.7749 24.9674 20.4695 22.9853L20.6881 22.7536C21.8405 21.5159 22.7307 20.0265 23.5925 18.5973C23.5925 18.5973 24.3845 17.2891 24.4223 17.2286C24.9118 17.1384 25.5015 16.9975 26.1659 16.8062C26.1564 16.8362 23.6239 21.0929 23.8822 23.2057C23.9627 23.8503 23.9014 26.205 26.2002 26.9193C29.2643 27.4329 31.711 25.0577 33.8694 22.9445C33.8694 22.9445 34.2372 22.5926 34.4453 22.3917C34.3926 22.6024 34.324 22.8836 34.324 22.8836C33.427 26.0032 34.6361 26.6578 35.3925 26.8993C37.6785 27.5639 40.4094 24.2429 40.4183 24.2429C40.3473 25.289 40.1404 26.1543 41.2432 26.8488C42.2839 27.2214 43.3373 26.6533 44.1381 26.1199C47.0221 24.0874 49.3456 20.9059 51.2222 18.156H50.0251C50.011 18.156 47.0714 22.4169 45.1625 23.343C45.1594 23.343 44.812 23.5213 44.6119 23.3802C44.364 23.1689 44.4618 22.7293 44.6148 22.418C44.6244 22.3978 51.9854 9.63104 51.9854 9.63104H48.5099C48.5099 9.63104 48.1303 10.2453 48.0993 10.2855C48.076 10.2655 48.0203 10.1599 47.9818 10.1093C45.8285 7.13074 40.9523 11.7122 37.2812 17.0252C35.8679 19.0682 34.0684 21.3685 32.2025 23.0288C32.2025 23.0288 29.4382 25.5626 28.2572 23.7421C27.8255 22.9772 27.9583 21.8589 28.2018 21.1245C29.577 17.2099 31.9465 13.6573 34.643 11.5138C35.4041 10.9205 36.2315 10.7489 36.642 11.0005C37.0333 11.2324 37.0964 11.8055 36.8489 12.198C36.221 12.178 35.7177 12.3688 35.3088 12.7915C34.503 13.6368 34.2231 14.4521 34.4792 15.217C35.7238 16.988 38.2058 13.486 38.0857 11.3527C38.0428 10.5878 37.6349 9.86342 37.0257 9.51087C36.1181 8.96774 34.7335 9.1084 33.8374 9.54139C32.6377 9.99404 30.739 11.5738 29.6306 12.8017C28.2352 14.3415 25.842 16.052 25.0938 15.8605C25.3384 15.2063 27.3598 11.0705 25.2333 9.52104ZM41.9892 15.6392C42.6653 14.7036 44.6331 12.1978 45.1128 11.7752C46.7262 10.3558 47.3711 10.9803 47.4269 11.4228C45.9212 14.1196 44.144 17.2091 42.4731 19.9866C42.4765 19.9767 41.9502 20.7815 41.9502 20.7815C41.2122 21.9082 40.4692 22.8744 39.2571 23.5484C39.0843 23.5991 38.7994 23.6193 38.6097 23.4779C38.3815 23.3269 38.2914 23.0753 38.3172 22.8136C38.3899 21.9484 39.2707 19.3024 41.9892 15.6392ZM23.0823 17.2593C23.0823 17.2593 23.0519 17.3502 23.037 17.3799C23.0332 17.3799 21.5216 19.845 21.5216 19.845C20.6095 21.0628 19.4706 22.5928 18.0469 23.327C17.6249 23.4678 17.0415 23.5587 16.7442 23.1866C16.114 22.4318 16.4388 21.3851 16.7027 20.54L16.7962 20.2381C17.5527 18.1855 18.7529 16.3738 19.9214 14.6932C19.936 14.6833 19.9687 14.6733 19.9805 14.6733C19.9834 14.6833 19.9881 14.6833 19.99 14.7036C20.7232 16.1121 22.0979 16.7659 23.126 17.0683C23.1322 17.0683 23.1389 17.0783 23.1389 17.0985C23.1391 17.1285 23.1223 17.1691 23.0823 17.2593ZM24.5142 14.3514C24.5075 14.3715 23.841 15.901 23.841 15.901C23.7446 15.9815 23.5923 15.9413 23.4176 15.901L23.1184 15.8504C22.1789 15.5588 21.4702 14.9348 21.2517 14.1903C20.9505 12.7412 22.1884 11.604 22.7337 11.1917C23.257 10.8291 24.0706 10.638 24.5431 11.0104C24.8344 11.3527 24.9448 11.7953 24.9448 12.2786C24.945 12.9324 24.7431 13.6669 24.5142 14.3514ZM68.451 19.0202C68.1158 18.2959 67.3203 17.8329 66.4725 17.8831C63.7193 18.1349 61.0264 20.399 59.6123 23.649C58.8704 25.3197 58.4655 26.6981 58.1999 28.8918C59.0562 27.9059 60.8024 26.2859 62.7841 25.4002C62.7841 25.4002 63.0537 23.2972 64.4287 21.4254C64.949 20.6503 65.9902 19.4026 67.1593 19.7346C68.1809 20.0768 67.8218 22.9046 66.4641 25.6411C65.4595 27.654 63.9223 29.6671 62.3669 31.0555C60.9917 32.2227 58.9572 33.6316 57.1771 32.5449C56.0559 31.881 55.484 30.4919 55.6048 28.7008C56.1405 23.6192 58.4538 19.2921 61.7641 14.3613C65.1774 9.78271 68.9399 5.08336 74.0086 2.57728C75.0425 2.0541 75.9999 1.93337 76.8275 2.2554C76.8275 2.2554 72.0694 4.87175 69.8014 9.71217C69.2244 10.94 68.422 12.5999 69.2301 14.0693C69.6523 14.8339 70.402 14.8944 71.0057 14.8541C73.7859 14.2099 75.582 11.6138 77.0496 9.23917C77.9004 7.43791 78.6567 5.6467 78.6567 3.65419C78.6567 3.41274 78.6441 3.09085 78.6238 2.84912C79.9519 2.14498 82.6757 3.39252 82.6757 3.39252C84.804 4.09721 89.3359 7.56909 90.8646 8.23294C91.6103 7.36765 92.8357 6.05961 93.5258 5.40539L92.5269 4.79145C90.9277 3.81534 89.2374 2.88941 87.5738 1.9738C83.7955 -0.0888429 80.7198 0.635508 79.1547 1.19912C78.5395 1.42036 77.9774 1.61162 77.9774 1.61162C76.8158 0.343733 74.9106 0.464183 73.5069 0.806558C68.4587 2.25553 63.7717 5.7875 58.7468 11.916C55.0524 16.7162 52.7608 20.8622 51.5394 24.9576C50.598 27.7148 50.3118 31.7701 52.6097 34.1752C54.5635 36.2175 57.1541 35.775 58.9834 35.0408C62.9471 33.0886 66.5096 28.882 68.2848 24.0416C68.7132 22.6028 69.1885 20.5701 68.451 19.0202ZM77.5655 3.85562C77.0408 9.87332 72.3631 13.4057 71.2057 13.687C70.5043 13.8277 69.3075 13.516 70.376 10.9905C71.9493 7.58889 74.6356 4.70111 77.5176 3.22175C77.5879 3.47337 77.586 3.63397 77.5655 3.85562ZM105.313 4.62012C102.797 6.0493 100.188 6.97481 97.0309 6.65293C96.156 7.63935 95.3039 8.65562 94.5187 9.70199C98.9502 10.8291 103.648 8.32342 106.268 5.93875C109.04 3.5336 110.461 0.504883 110.461 0.504883C110.461 0.504883 108.384 2.87951 105.313 4.62012ZM57.7616 9.63132H54.461L52.5993 12.6563H55.8992L57.7616 9.63132Z" fill="#BBBBBB"/>
<path d="M97.0177 32.1909C96.6628 32.4323 96.1643 32.2467 96.3506 31.6934C96.8151 30.2846 98.6611 27.4136 98.6611 27.4136L103.803 18.2938H100.281C100.114 18.5688 99.7556 19.2002 99.7556 19.2002C99.5927 18.9287 99.1054 18.3252 98.9048 18.1948C98.0443 17.6509 96.7819 17.9081 95.911 18.401C92.1244 20.6152 89.3616 24.9897 87.1826 28.4013C87.1826 28.4013 84.889 32.1935 83.6159 32.4755C82.6219 32.5561 82.7245 31.2171 82.7675 30.9051C83.1518 28.6507 84.0443 26.5075 84.9434 24.5653C86.7725 23.2974 88.8596 21.6371 90.7564 19.8157C94.8729 15.8808 98.3432 11.4229 98.8505 10.4267C98.8505 10.4267 98.3014 10.5375 97.6531 10.5574C94.4862 14.975 88.0056 21.3955 86.0408 22.3512C86.9112 20.2577 92.5347 10.2655 97.32 5.48575L98.073 4.76099C99.2375 3.62386 100.444 2.45662 101.384 2.26536C101.483 2.25532 101.611 2.26536 101.722 2.49719C101.764 3.38255 101.434 4.03678 101.056 4.78134L100.526 5.86828C100.526 5.86828 101.277 5.72734 101.77 5.56592C102.342 4.4897 102.975 3.28176 102.742 1.8431C102.664 1.38014 102.329 1.028 101.891 0.947423C100.463 0.675723 98.9074 1.732 97.6555 2.58766L97.605 2.61764C91.1697 7.65922 85.7358 14.9247 80.9849 24.8469C80.6406 25.1081 79.3103 25.4204 79.0843 25.2693C79.5534 24.3035 80.1441 23.0051 80.4396 21.5962C80.4908 21.1935 80.5383 20.7813 80.5383 20.3788C80.5383 19.5127 80.3304 18.6979 79.5547 18.1347C78.645 17.6817 77.5206 17.8932 76.7624 18.235C73.3666 19.6439 70.8285 23.1259 68.9969 25.9935C68.0118 27.8154 67.0296 29.7666 66.7577 32.001C66.5661 33.7517 66.9561 34.8789 67.9516 35.4425C68.9751 35.9654 70.2635 35.4219 70.7696 35.1605C74.21 33.3491 76.6139 29.7166 78.5087 26.3957C78.584 26.3858 79.6186 26.3558 80.4012 26.1542C80.4116 26.1542 80.416 26.1542 80.4333 26.1647C80.3885 26.3151 79.9841 27.523 79.9841 27.523C78.7831 31.0447 78.2278 33.4399 79.3622 34.8587C80.9831 36.8612 83.6669 34.7885 85.85 32.0509C85.3814 35.3313 87.0814 35.8448 88.3775 35.5935C89.8662 35.1911 91.5251 33.6008 92.295 32.786C92.0478 33.7418 92.1149 35.4528 93.4693 35.6236C94.3974 35.7952 95.0922 35.2903 95.8959 34.8574C98.7791 33.2875 102.23 28.056 103.127 26.5435H101.952C100.678 28.4689 99.0567 30.9929 97.0177 32.1909ZM71.1377 31.8405C70.9549 31.5687 70.8942 31.2717 70.8882 30.9505C70.8531 28.9772 72.9761 25.4438 74.4744 23.5188H74.4776C75.1054 24.8938 76.5275 25.7776 77.3859 26.1501C76.3198 28.5251 72.6633 33.6115 71.1377 31.8405ZM77.9877 25.0883C77.8862 25.1593 76.0931 24.5551 75.7465 22.8948C75.4525 21.4653 76.4368 20.3484 77.3892 19.7855C77.798 19.4632 78.4137 19.3529 78.8654 19.5132C79.2846 19.7955 79.3982 20.2991 79.3982 20.8415C79.3982 21.1742 79.354 21.5161 79.3151 21.8279L79.3066 21.8986C79.0063 23.0142 78.563 24.0864 77.9877 25.0883ZM92.3698 31.2067C92.3683 31.2067 92.0295 31.5085 92.0295 31.5085C91.5458 31.9411 91.048 32.4039 90.4471 32.1723C90.2812 32.1121 90.1644 31.8909 90.1364 31.7193C90.109 30.4815 90.6663 29.3346 91.207 28.2177L91.3456 27.9258C92.9004 25.3296 94.7077 22.2705 97.362 20.1475C97.8093 19.8248 98.2947 19.5537 98.807 19.7651C98.9249 19.8757 99.0621 20.067 99.0621 20.2579C99.0621 20.3186 99.0082 20.4795 98.9772 20.5296C98.2358 21.7277 97.5299 22.9853 96.8434 24.1928C95.5017 26.5777 94.1097 29.0427 92.3698 31.2067Z" fill="#BBBBBB"/>
</svg>