<svg xmlns="http://www.w3.org/2000/svg" fill="none" viewBox="0 0.56 100 35.87">
<path fill-rule="evenodd" clip-rule="evenodd" d="M0 28.5699V0.563354H14.9094V4.09163H3.59692V11.7248H12.2872V15.2531H3.59692V28.5837L0 28.5699ZM23.7507 3.89943C23.7507 5.18993 22.7073 6.24704 21.4031 6.24704C20.1126 6.24704 19.0555 5.18993 19.0555 3.89943C19.0555 2.60893 20.0988 1.55182 21.4031 1.55182C22.6936 1.55182 23.7507 2.60893 23.7507 3.89943ZM19.5771 28.5699V9.77532H23.1741V28.5699H19.5771ZM28.4046 18.0814C28.4046 13.2763 31.7407 9.22635 36.532 9.22635C38.7286 9.22635 40.5271 10.0775 41.8451 11.4504V9.7755H45.4282V27.1972C45.4282 32.3043 41.2959 36.4367 36.1888 36.4367C34.3492 36.4367 32.6331 35.9012 31.1916 34.9677L33.0038 31.8375C33.9099 32.4691 35.0493 32.9084 36.2026 32.9084C39.4013 32.9084 41.8451 30.3137 41.8451 27.1972V24.7123C40.5271 26.0852 38.7286 26.9364 36.532 26.9364C31.7407 26.9364 28.4046 22.8864 28.4046 18.0814ZM36.9302 12.7546C34.2943 12.7546 32.0153 15.1022 32.0153 18.0814C32.0153 21.0605 34.2943 23.4081 36.9302 23.4081C39.5661 23.4081 41.8451 21.0605 41.8451 18.0814C41.8451 15.1022 39.5661 12.7546 36.9302 12.7546ZM58.4295 12.7546C56.3015 12.7546 54.5717 14.5668 54.5717 16.6948V28.5701H50.9748V9.7755H54.5717V11.4916C55.6288 10.1324 57.1802 9.22635 59.212 9.22635C61.7381 9.22635 63.6738 10.4757 64.7996 12.3977C66.0489 10.5443 68.0808 9.22635 70.5382 9.22635C74.6431 9.22635 77.1966 12.535 77.2104 16.6261V28.5701H73.6134V16.681C73.6134 14.5531 71.8836 12.7409 69.7557 12.7409C67.6277 12.7409 65.8979 14.5531 65.8979 16.681V28.5701H62.301V16.681C62.2872 14.5531 60.5574 12.7546 58.4295 12.7546ZM90.0603 9.22635C92.6001 9.22635 94.7967 10.2423 96.403 11.9035V9.7755H99.9999V28.5701H96.403V26.4559C94.7967 28.1033 92.6001 29.133 90.0603 29.133C84.6924 29.133 80.8895 24.5888 80.8895 19.1797C80.8895 13.7706 84.7061 9.22635 90.0603 9.22635ZM90.4585 12.7546C87.2459 12.7546 84.5002 15.5965 84.5002 19.1797C84.5002 22.7629 87.2459 25.591 90.4585 25.6047C93.671 25.6047 96.4167 22.7629 96.4167 19.1797C96.4167 15.5827 93.6572 12.7546 90.4585 12.7546Z" fill="#BBBBBB"/>
</svg>