<svg xmlns="http://www.w3.org/2000/svg" fill="none" viewBox="0 0.4 110 36.21">
<path d="M47.0743 19.4509C47.0743 24.6604 42.9988 28.4992 37.9974 28.4992C32.9959 28.4992 28.9204 24.6604 28.9204 19.4509C28.9204 14.2046 32.9959 10.4025 37.9974 10.4025C42.9988 10.4025 47.0743 14.2046 47.0743 19.4509ZM43.1008 19.4509C43.1008 16.1954 40.7388 13.968 37.9974 13.968C35.2559 13.968 32.8939 16.1954 32.8939 19.4509C32.8939 22.6737 35.2559 24.9337 37.9974 24.9337C40.7388 24.9337 43.1008 22.6696 43.1008 19.4509Z" fill="#BBBBBB"/>
<path d="M66.6553 19.4509C66.6553 24.6604 62.5799 28.4992 57.5784 28.4992C52.5769 28.4992 48.5015 24.6604 48.5015 19.4509C48.5015 14.2087 52.5769 10.4025 57.5784 10.4025C62.5799 10.4025 66.6553 14.2046 66.6553 19.4509ZM62.6819 19.4509C62.6819 16.1954 60.3198 13.968 57.5784 13.968C54.837 13.968 52.4749 16.1954 52.4749 19.4509C52.4749 22.6737 54.837 24.9337 57.5784 24.9337C60.3198 24.9337 62.6819 22.6696 62.6819 19.4509Z" fill="#BBBBBB"/>
<path d="M85.4218 10.9491V27.1938C85.4218 33.876 81.481 36.6052 76.8222 36.6052C72.4367 36.6052 69.7972 33.6721 68.8018 31.2733L72.2613 29.8332C72.8773 31.3059 74.3867 33.0438 76.8181 33.0438C79.8002 33.0438 81.6483 31.204 81.6483 27.7404V26.4391H81.5096C80.6202 27.5365 78.9068 28.4952 76.7447 28.4952C72.2205 28.4952 68.0757 24.5543 68.0757 19.4835C68.0757 14.3759 72.2205 10.4025 76.7447 10.4025C78.9027 10.4025 80.6161 11.3612 81.5096 12.4259H81.6483V10.9532H85.4218V10.9491ZM81.9297 19.4835C81.9297 16.2974 79.8043 13.968 77.0996 13.968C74.3582 13.968 72.0614 16.2974 72.0614 19.4835C72.0614 22.637 74.3582 24.9337 77.0996 24.9337C79.8043 24.9337 81.9297 22.637 81.9297 19.4835Z" fill="#BBBBBB"/>
<path d="M91.6421 1.42712V27.944H87.7666V1.42712H91.6421Z" fill="#BBBBBB"/>
<path d="M106.744 22.4283L109.829 24.4844C108.833 25.9571 106.434 28.4946 102.29 28.4946C97.1494 28.4946 93.3105 24.5211 93.3105 19.4462C93.3105 14.0653 97.182 10.3978 101.845 10.3978C106.54 10.3978 108.837 14.1347 109.588 16.154L110 17.1821L97.9041 22.1917C98.8301 24.0071 100.27 24.9332 102.29 24.9332C104.313 24.9332 105.716 23.9378 106.744 22.4283ZM97.2514 19.1729L105.337 15.8154C104.892 14.6854 103.554 13.8981 101.98 13.8981C99.9602 13.8981 97.1494 15.6808 97.2514 19.1729Z" fill="#BBBBBB"/>
<path d="M14.2498 17.0966V13.2578H27.186C27.3124 13.9268 27.3777 14.7182 27.3777 15.5749C27.3777 18.4551 26.5903 22.0165 24.0529 24.554C21.5848 27.1241 18.4313 28.4948 14.2539 28.4948C6.51092 28.4948 0 22.1878 0 14.4449C0 6.70196 6.51092 0.39502 14.2539 0.39502C18.5374 0.39502 21.5888 2.07578 23.8815 4.26649L21.1727 6.97529C19.5287 5.43323 17.3013 4.23385 14.2498 4.23385C8.59556 4.23385 4.17335 8.79068 4.17335 14.4449C4.17335 20.0991 8.59556 24.6559 14.2498 24.6559C17.9173 24.6559 20.006 23.1832 21.3441 21.8452C22.4292 20.76 23.1431 19.2098 23.4246 17.0925L14.2498 17.0966Z" fill="#BBBBBB"/>
</svg>