<svg xmlns="http://www.w3.org/2000/svg" fill="none" viewBox="0 0 110 77">
<g clip-path="url(#clip0_1698_7101)">
<path d="M45.7754 8.4005C49.3231 4.7041 54.262 2.4115 59.7244 2.4115C66.9857 2.4115 73.3208 6.46047 76.6946 12.4713C79.6264 11.1614 82.8715 10.4327 86.2858 10.4327C99.3823 10.4327 110 21.1429 110 34.3538C110 47.5662 99.3823 58.2764 86.2858 58.2764C84.7172 58.2773 83.1523 58.1214 81.6147 57.811C78.6438 63.1104 72.9824 66.6909 66.4843 66.6909C63.764 66.6909 61.1911 66.0626 58.9002 64.9454C55.8885 72.0295 48.8717 76.9967 40.6937 76.9967C32.1774 76.9967 24.9192 71.608 22.1332 64.0506C20.9157 64.3091 19.6543 64.4439 18.36 64.4439C8.22027 64.444 0 56.1392 0 45.8929C0 39.0265 3.69331 33.0313 9.18076 29.8237C8.05103 27.2243 7.42263 24.3551 7.42263 21.3387C7.42263 9.55523 16.9889 0.00317383 28.7881 0.00317383C35.7155 0.00317383 41.8721 3.2969 45.7754 8.4005Z" fill="#BBBBBB"/>
<path d="M15.9326 39.9302C15.8636 40.1105 15.9577 40.1482 15.9796 40.1794C16.1864 40.3298 16.3965 40.4381 16.608 40.5586C17.7299 41.154 18.7893 41.3279 19.8971 41.3279C22.1535 41.3279 23.5543 40.1277 23.5543 38.1956V38.158C23.5543 36.3716 21.9733 35.7229 20.4894 35.2544L20.2967 35.1918C19.1778 34.8282 18.2126 34.5149 18.2126 33.7784V33.7393C18.2126 33.1094 18.7767 32.6455 19.6511 32.6455C20.6226 32.6455 21.7759 32.9683 22.5186 33.3788C22.5186 33.3788 22.7364 33.5199 22.8163 33.3083C22.8601 33.1955 23.2363 32.1832 23.2755 32.0736C23.3178 31.9544 23.2426 31.8667 23.1658 31.8196C22.3181 31.3041 21.1459 30.9515 19.9332 30.9515L19.7076 30.9531C17.6424 30.9531 16.2008 32.2004 16.2008 33.9883V34.0259C16.2008 35.9109 17.7912 36.522 19.2815 36.9482L19.5212 37.0219C20.6071 37.3557 21.5426 37.6424 21.5426 38.4071V38.4448C21.5426 39.1436 20.9346 39.6638 19.9537 39.6638C19.5729 39.6638 18.3585 39.656 17.047 38.8269C16.8886 38.7345 16.7963 38.6672 16.674 38.5935C16.6098 38.5528 16.4484 38.4822 16.378 38.6954L15.9326 39.9302ZM48.9654 39.9302C48.8964 40.1105 48.9905 40.1482 49.0124 40.1794C49.2192 40.3298 49.4293 40.4381 49.6407 40.5586C50.7626 41.154 51.8221 41.3279 52.9298 41.3279C55.1862 41.3279 56.5871 40.1277 56.5871 38.1956V38.158C56.5871 36.3716 55.006 35.7229 53.5221 35.2544L53.3294 35.1918C52.2105 34.8282 51.2452 34.5149 51.2452 33.7784V33.7393C51.2452 33.1094 51.8093 32.6455 52.6837 32.6455C53.6552 32.6455 54.8085 32.9683 55.5513 33.3788C55.5513 33.3788 55.7691 33.5199 55.8489 33.3083C55.8927 33.1955 56.2689 32.1832 56.3081 32.0736C56.3505 31.9544 56.2751 31.8667 56.1984 31.8196C55.3507 31.3041 54.1785 30.9515 52.9658 30.9515L52.7401 30.9531C50.6748 30.9531 49.2333 32.2004 49.2333 33.9883V34.0259C49.2333 35.9109 50.8237 36.522 52.3139 36.9482L52.5536 37.0219C53.6396 37.3557 54.5767 37.6424 54.5767 38.4071V38.4448C54.5767 39.1436 53.9671 39.6638 52.9862 39.6638C52.6055 39.6638 51.3911 39.656 50.0796 38.8269C49.9212 38.7345 49.8273 38.6703 49.7083 38.5935C49.6674 38.5669 49.4763 38.4932 49.4104 38.6954L48.9654 39.9302ZM71.516 36.1458C71.516 37.2379 71.3123 38.0981 70.9112 38.7062C70.5147 39.3079 69.9146 39.6009 69.078 39.6009C68.2397 39.6009 67.6427 39.3094 67.2525 38.7062C66.8575 38.0998 66.6571 37.2379 66.6571 36.1458C66.6571 35.0552 66.8575 34.1965 67.2525 33.5947C67.6427 32.9994 68.2397 32.7094 69.078 32.7094C69.9147 32.7094 70.5148 32.9994 70.9129 33.5947C71.3124 34.1964 71.516 35.0551 71.516 36.1458ZM73.3996 34.1213C73.2146 33.496 72.9263 32.9444 72.5425 32.4854C72.1585 32.0247 71.6728 31.6549 71.0961 31.3854C70.521 31.1175 69.841 30.9812 69.078 30.9812C68.3133 30.9812 67.6332 31.1175 67.0581 31.3854C66.4815 31.6549 65.9958 32.0248 65.6103 32.4854C65.228 32.9461 64.9396 33.4976 64.7532 34.1213C64.5699 34.7433 64.4774 35.4233 64.4774 36.1458C64.4774 36.8682 64.5699 37.5498 64.7532 38.1702C64.9396 38.7939 65.2264 39.3456 65.6119 39.8062C65.9958 40.2669 66.4831 40.6351 67.0582 40.8967C67.6348 41.1584 68.3133 41.2915 69.0781 41.2915C69.8412 41.2915 70.5196 41.1584 71.0962 40.8967C71.6713 40.6351 72.1585 40.2667 72.5426 39.8062C72.9264 39.347 73.2147 38.7955 73.3997 38.1702C73.5847 37.5482 73.6771 36.8665 73.6771 36.1458C73.6771 35.425 73.5845 34.7433 73.3996 34.1213ZM88.8664 39.3092C88.8038 39.1259 88.6267 39.1948 88.6267 39.1948C88.3525 39.2999 88.061 39.397 87.7508 39.4455C87.4358 39.494 87.0895 39.5192 86.7181 39.5192C85.8062 39.5192 85.0823 39.2481 84.5636 38.7122C84.0434 38.1763 83.7519 37.3098 83.755 36.1377C83.7582 35.0706 84.0151 34.2683 84.4774 33.6573C84.9366 33.0494 85.6355 32.7374 86.5678 32.7374C87.345 32.7374 87.9373 32.8267 88.5577 33.0226C88.5577 33.0226 88.7065 33.0868 88.777 32.8926C88.9415 32.4349 89.0637 32.1075 89.2393 31.6045C89.2895 31.4619 89.1672 31.4008 89.1233 31.3835C88.8789 31.2879 88.3022 31.1329 87.8666 31.067C87.4592 31.0044 86.9829 30.9715 86.4532 30.9715C85.6618 30.9715 84.9567 31.1062 84.3536 31.3758C83.7518 31.6437 83.241 32.0134 82.8368 32.4743C82.4325 32.935 82.1254 33.4864 81.9201 34.11C81.7164 34.7321 81.613 35.4153 81.613 36.1377C81.613 37.7 82.0345 38.9628 82.8666 39.8874C83.7002 40.8151 84.9522 41.2867 86.585 41.2867C87.5503 41.2867 88.5406 41.0909 89.252 40.8104C89.252 40.8104 89.3883 40.7445 89.3288 40.5864L88.8664 39.3092ZM92.1619 35.0995C92.2512 34.4931 92.4189 33.9885 92.6774 33.5953C93.0677 32.9983 93.663 32.6708 94.4999 32.6708C95.3367 32.6708 95.8898 32.9998 96.2862 33.5953C96.5495 33.9885 96.6639 34.5151 96.7093 35.0995H92.1619ZM98.5034 33.766C98.3436 33.1627 97.9471 32.5531 97.687 32.2742C97.2764 31.8323 96.8754 31.5237 96.4773 31.3512C95.9571 31.1287 95.3334 30.9815 94.6503 30.9815C93.8543 30.9815 93.1319 31.1147 92.5459 31.3904C91.9583 31.6663 91.4648 32.0424 91.0777 32.5109C90.6905 32.9778 90.3991 33.5341 90.2142 34.1655C90.0277 34.7939 89.9337 35.4787 89.9337 36.2009C89.9337 36.9359 90.0309 37.6207 90.2236 38.2364C90.418 38.857 90.7282 39.4038 91.1481 39.8566C91.5664 40.3127 92.1055 40.67 92.7511 40.9189C93.3921 41.1666 94.1709 41.2951 95.0655 41.2934C96.9068 41.2871 97.8766 40.8766 98.2762 40.6557C98.3468 40.6166 98.4142 40.5476 98.3294 40.3502L97.9126 39.1827C97.8501 39.0088 97.6729 39.073 97.6729 39.073C97.2168 39.2423 96.5683 39.5463 95.056 39.5432C94.0674 39.5417 93.3339 39.2502 92.8748 38.7941C92.4032 38.3273 92.1728 37.6408 92.1321 36.6725L98.508 36.6788C98.508 36.6788 98.6756 36.6757 98.693 36.5126C98.6992 36.4439 98.9124 35.2029 98.5034 33.766ZM41.1 35.0995C41.1908 34.4931 41.357 33.9885 41.6155 33.5953C42.0056 32.9983 42.6011 32.6708 43.4378 32.6708C44.2746 32.6708 44.8278 32.9998 45.2257 33.5953C45.4873 33.9885 45.6017 34.5151 45.6472 35.0995H41.1ZM47.4398 33.766C47.28 33.1627 46.8852 32.5531 46.6251 32.2742C46.2145 31.8323 45.8134 31.5237 45.4154 31.3512C44.8952 31.1287 44.2716 30.9815 43.5884 30.9815C42.7939 30.9815 42.07 31.1147 41.4839 31.3904C40.8964 31.6663 40.4028 32.0424 40.0157 32.5109C39.6287 32.9778 39.3372 33.5341 39.1524 34.1655C38.9675 34.7939 38.8719 35.4787 38.8719 36.2009C38.8719 36.9359 38.969 37.6207 39.1618 38.2364C39.3562 38.857 39.6665 39.4038 40.0863 39.8566C40.5047 40.3127 41.0437 40.67 41.6893 40.9189C42.3303 41.1666 43.1089 41.2951 44.0037 41.2934C45.8449 41.2871 46.8148 40.8766 47.2144 40.6557C47.285 40.6166 47.3523 40.5476 47.2677 40.3502L46.8525 39.1827C46.7882 39.0088 46.6112 39.073 46.6112 39.073C46.1553 39.2423 45.508 39.5463 43.9928 39.5432C43.0057 39.5417 42.2723 39.2502 41.8132 38.7941C41.3415 38.3273 41.1112 37.6408 41.0704 36.6725L47.4463 36.6788C47.4463 36.6788 47.6139 36.6757 47.6312 36.5126C47.6372 36.4439 47.8503 35.2029 47.4398 33.766ZM27.3185 39.2743C27.0693 39.0752 27.0349 39.0251 26.9503 38.8966C26.8249 38.7008 26.7607 38.4219 26.7607 38.0677C26.7607 37.5067 26.9456 37.1041 27.3295 36.833C27.3249 36.8346 27.878 36.3551 29.1785 36.3723C30.092 36.3848 30.9083 36.5196 30.9083 36.5196V39.4185H30.9099C30.9099 39.4185 30.0998 39.5923 29.1878 39.6472C27.8904 39.7256 27.3138 39.2728 27.3185 39.2743ZM29.8553 34.7944C29.5968 34.7756 29.2614 34.7645 28.8603 34.7645C28.3135 34.7645 27.7854 34.8335 27.2902 34.9667C26.792 35.0998 26.3438 35.3084 25.9583 35.584C25.5734 35.8587 25.257 36.2185 25.0338 36.6354C24.8082 37.0554 24.6938 37.5505 24.6938 38.1053C24.6938 38.6694 24.7909 39.1598 24.9853 39.561C25.1796 39.9637 25.4601 40.299 25.8173 40.5577C26.1714 40.8162 26.6086 41.0057 27.1162 41.1201C27.6161 41.2345 28.1833 41.2924 28.8039 41.2924C29.4573 41.2924 30.1091 41.2392 30.7406 41.131C31.3658 41.0244 32.1336 40.8693 32.3467 40.8208C32.4961 40.7848 32.645 40.7467 32.7933 40.7064C32.9516 40.6673 32.9391 40.498 32.9391 40.498L32.9359 34.6674C32.9359 33.3887 32.5943 32.4407 31.9221 31.8531C31.253 31.2671 30.2674 30.9708 28.9935 30.9708C28.5155 30.9708 27.7462 31.0368 27.2855 31.1291C27.2855 31.1291 25.8925 31.3987 25.3189 31.8468C25.3189 31.8468 25.1936 31.9252 25.2625 32.1008L25.7139 33.3136C25.7702 33.4703 25.9223 33.417 25.9223 33.417C25.9223 33.417 25.9709 33.3982 26.0273 33.3653C27.2543 32.6978 28.8055 32.7181 28.8055 32.7181C29.495 32.7181 30.0247 32.856 30.3819 33.1302C30.7297 33.3965 30.9068 33.7992 30.9068 34.6485V34.918C30.3583 34.8397 29.8553 34.7944 29.8553 34.7944ZM81.2799 31.5091C81.3284 31.3649 81.2266 31.296 81.1843 31.2803C81.0762 31.238 80.534 31.1236 80.1156 31.097C79.315 31.0484 78.8701 31.1832 78.4719 31.3618C78.0771 31.5404 77.6384 31.8287 77.3938 32.1563V31.3806C77.3938 31.2725 77.3171 31.1863 77.2105 31.1863H75.5761C75.4697 31.1863 75.3929 31.2724 75.3929 31.3806V40.8904C75.3929 40.997 75.4807 41.0848 75.5871 41.0848H77.2622C77.3135 41.0845 77.3626 41.0638 77.3988 41.0274C77.4349 40.991 77.4551 40.9417 77.4549 40.8904V36.1395C77.4549 35.5017 77.5255 34.8656 77.6666 34.466C77.8044 34.0711 77.9925 33.7546 78.2244 33.5273C78.4578 33.3017 78.7226 33.1435 79.0126 33.0542C79.3086 32.9633 79.6361 32.9335 79.8681 32.9335C80.2019 32.9335 80.5685 33.0196 80.5685 33.0196C80.6906 33.0337 80.7597 32.9585 80.8003 32.8473C80.9101 32.5558 81.2204 31.683 81.2799 31.5091Z" fill="white"/>
<path d="M65.5567 27.1016C65.353 27.039 65.1681 26.9966 64.9268 26.9512C64.6822 26.9074 64.3909 26.8854 64.0603 26.8854C62.9069 26.8854 61.9981 27.2113 61.3604 27.8537C60.7258 28.4931 60.2948 29.4661 60.0785 30.7464L60.0001 31.1772H58.5524C58.5524 31.1772 58.3769 31.171 58.3392 31.3622L58.1027 32.6894C58.0854 32.8148 58.1404 32.8946 58.3095 32.8946H59.7182L58.2891 40.8735C58.1778 41.516 58.0493 42.0441 57.9067 42.4451C57.7672 42.8401 57.631 43.1362 57.4618 43.3525C57.2988 43.5593 57.1452 43.7128 56.8787 43.8021C56.6594 43.8758 56.4056 43.9103 56.1282 43.9103C55.9746 43.9103 55.7695 43.8851 55.6174 43.8538C55.467 43.8239 55.3871 43.7911 55.2727 43.7425C55.2727 43.7425 55.1082 43.6799 55.0423 43.8444C54.9906 43.9807 54.6145 45.0132 54.5691 45.1403C54.5252 45.2672 54.5879 45.3659 54.6677 45.3957C54.8558 45.4615 54.9952 45.5053 55.2506 45.5664C55.6049 45.6496 55.904 45.6542 56.1845 45.6542C56.7705 45.6542 57.3064 45.5712 57.7499 45.4114C58.195 45.25 58.5835 44.9694 58.9282 44.5903C59.2996 44.1797 59.533 43.7504 59.7557 43.1628C59.9766 42.583 60.1663 41.8622 60.3166 41.0224L61.7535 32.8946H63.8532C63.8532 32.8946 64.0302 32.9009 64.0664 32.7082L64.3044 31.3826C64.3202 31.2558 64.2669 31.1774 64.096 31.1774H62.0574C62.0684 31.132 62.1608 30.4142 62.3944 29.739C62.4947 29.4523 62.6826 29.2187 62.841 29.0588C62.9978 28.9022 63.1779 28.7909 63.3754 28.7266C63.5775 28.6608 63.808 28.6295 64.0602 28.6295C64.2514 28.6295 64.4409 28.6514 64.5835 28.6812C64.7809 28.7236 64.8576 28.7455 64.9095 28.7612C65.1179 28.8239 65.146 28.7628 65.1869 28.6626L65.6742 27.3244C65.7243 27.1799 65.6006 27.1188 65.5567 27.1016ZM37.0734 40.8908C37.0734 40.9974 36.9967 41.0836 36.8901 41.0836H35.1994C35.0928 41.0836 35.0176 40.9974 35.0176 40.8908V27.2834C35.0176 27.1769 35.0928 27.0907 35.1994 27.0907H36.8901C36.9967 27.0907 37.0734 27.1769 37.0734 27.2834V40.8908Z" fill="white"/>
</g>
<defs>
<clipPath id="clip0_1698_7101">
<rect width="110" height="77" fill="white"/>
</clipPath>
</defs>
</svg>