<svg xmlns="http://www.w3.org/2000/svg" fill="none" viewBox="0 0.24 150 42.52">
<path fill-rule="evenodd" clip-rule="evenodd" d="M0.0170897 20.6567C0.483411 8.92483 10.3694 -0.207284 22.1013 0.259036C33.8312 0.723414 42.9633 10.6114 42.4989 22.3432C42.0326 34.0751 32.1466 43.2072 20.4147 42.7409C8.68483 42.2745 -0.449231 32.3885 0.0170897 20.6567ZM29.7936 32.031C30.2949 32.101 30.8098 31.8678 31.0741 31.4015H31.076C31.4219 30.7914 31.2081 30.0181 30.6 29.6703C27.5086 27.9119 24.1434 26.7674 20.5954 26.2681C17.0475 25.7687 13.4957 25.9417 10.041 26.781C9.35905 26.9462 8.94131 27.6321 9.10646 28.3141C9.27162 28.9961 9.9575 29.4138 10.6395 29.2486C13.7813 28.4851 17.0125 28.3277 20.2418 28.7823C23.4711 29.237 26.5333 30.2784 29.3428 31.8775C29.4866 31.9591 29.6401 32.0097 29.7936 32.031ZM31.6317 26.4876C32.4322 26.9209 33.4348 26.6217 33.8681 25.8212V25.8193C34.3014 25.0168 34.0041 24.0161 33.2017 23.5829C29.5682 21.6165 25.6337 20.3264 21.5125 19.7474C17.3895 19.1683 13.2528 19.3257 9.21721 20.2137C8.32732 20.4099 7.76385 21.2901 7.96009 22.18C8.11164 22.8737 8.679 23.3672 9.34156 23.4604C9.53198 23.4876 9.72822 23.4799 9.92641 23.4371C13.5773 22.6347 17.3195 22.4928 21.0521 23.0174C24.7846 23.542 28.3441 24.7098 31.6317 26.4876ZM34.8804 20.6042C35.7081 20.7208 36.5572 20.3147 36.9653 19.5297V19.5317C37.4821 18.5369 37.0954 17.3108 36.1006 16.794C31.861 14.5887 27.2988 13.1314 22.5365 12.463C17.7742 11.7947 12.9866 11.9365 8.304 12.8866C7.2062 13.1101 6.49506 14.1807 6.71851 15.2804C6.94196 16.3782 8.01255 17.0893 9.11229 16.8659C13.3403 16.0071 17.6673 15.8788 21.9711 16.4831C26.2748 17.0874 30.3979 18.4028 34.2256 20.3944C34.4374 20.5032 34.657 20.5731 34.8804 20.6042ZM51.4762 29.8997C52.7916 31.3414 55.9393 32.6102 59.6057 32.6102V32.6141C64.1174 32.6141 67.5001 29.9813 67.5001 25.9088C67.5001 22.7437 65.6348 20.8317 61.0766 19.4697L59.6038 19.0306C56.6426 18.1523 55.813 17.824 55.813 16.6329C55.813 15.506 57.0973 14.2838 59.8233 14.2838C62.5494 14.2838 64.8518 15.6148 66.0429 16.6018C66.2469 16.7728 66.4664 16.6951 66.4664 16.4289V12.5273C66.4664 12.3564 66.4179 12.2611 66.2935 12.1679C64.8207 11.0701 62.2676 10.2715 59.699 10.2715C54.4665 10.2715 51.3343 13.2482 51.3343 16.631C51.3343 20.4529 53.7631 21.7858 57.7579 22.9127L59.4814 23.3984C62.4736 24.2437 63.0215 24.9956 63.0215 26.1556C63.0215 28.0986 61.5487 28.6931 59.3551 28.6931C56.5979 28.6931 53.2288 27.0804 51.6472 25.1063C51.5073 24.9334 51.3343 25.0111 51.3343 25.2152V29.5072C51.3343 29.6802 51.3518 29.7579 51.4762 29.8997ZM95.6989 20.0934C93.2702 20.0934 91.5467 21.9412 91.5467 24.4321C91.5467 26.9231 93.2877 28.7709 95.6989 28.7709C98.1102 28.7709 99.8337 26.9231 99.8337 24.4321C99.8337 21.9412 98.1277 20.0934 95.6989 20.0934ZM104.266 24.4321C104.266 28.9924 100.741 32.6102 95.6814 32.6102C90.6063 32.6102 87.1128 29.0234 87.1128 24.4321C87.1128 19.8408 90.6219 16.254 95.6814 16.254C100.741 16.254 104.266 19.8719 104.266 24.4321ZM126.229 16.631V15.3155L126.227 15.3117C126.227 12.0843 128.139 9.54677 131.46 9.54677C132.558 9.54677 133.685 9.86154 134.374 10.221C134.485 10.2832 134.547 10.3473 134.594 10.4561L136.005 13.8233C136.067 13.9652 135.958 14.074 135.801 13.9807C135.126 13.5746 134.17 13.12 133.294 13.12C131.823 13.12 130.679 13.903 130.679 15.5953V16.629H137.165C137.306 16.629 137.369 16.6601 137.431 16.8019L141.488 26.515L145.529 16.8019C145.591 16.6601 145.654 16.629 145.795 16.629H149.806C149.963 16.629 150.041 16.7378 149.979 16.8797L141.128 36.9936C141.066 37.1355 141.004 37.1666 140.862 37.1666H136.586C136.428 37.1666 136.335 37.0888 136.413 36.9159L139.092 31.0267L134.11 20.2022H130.679V32.0137C130.679 32.1556 130.601 32.2333 130.459 32.2333H126.449C126.307 32.2333 126.229 32.1556 126.229 32.0137V20.2022H123.565C123.424 20.2022 123.346 20.1245 123.346 19.9826V16.8505C123.346 16.7087 123.424 16.631 123.565 16.631H126.229ZM85.9062 24.401C85.9062 29.0526 83.0247 32.515 79.0144 32.515H79.0124C75.9736 32.515 74.2812 30.7294 73.2786 28.9127V36.949C73.2786 37.0908 73.2009 37.1685 73.0591 37.1685H69.1264C68.9846 37.1685 68.9069 37.0908 68.9069 36.949V16.8505C68.9069 16.7087 68.9846 16.631 69.1264 16.631H73.0591C73.2009 16.631 73.2786 16.7087 73.2786 16.8505V19.9826C74.2812 18.1659 76.0047 16.3492 78.9813 16.3492C82.9917 16.3492 85.9062 19.7495 85.9062 24.401ZM115.811 31.6698C115.059 32.1088 113.791 32.4527 112.476 32.4528C109.436 32.4525 107.306 30.729 107.306 27.0319V20.2022H104.58C104.439 20.2022 104.361 20.1245 104.361 19.9826V18.197C104.361 18.0727 104.392 17.993 104.485 17.9153L111.488 12.401C111.645 12.2767 111.754 12.37 111.754 12.5429V16.631H115.671C115.813 16.631 115.891 16.7087 115.891 16.8505V19.9826C115.891 20.1245 115.813 20.2022 115.671 20.2022H111.754V26.3751C111.754 28.0364 112.568 28.7883 113.852 28.7883C114.667 28.7883 115.261 28.5843 115.716 28.3337C115.858 28.254 115.935 28.3006 115.935 28.458V31.4347C115.935 31.5455 115.92 31.6076 115.811 31.6698ZM112.476 32.4528C112.475 32.4528 112.475 32.4528 112.475 32.4528H112.477C112.476 32.4528 112.476 32.4528 112.476 32.4528ZM119.602 14.4703C118.098 14.4703 117.002 13.4056 117.002 11.995C117.002 10.5843 118.067 9.51957 119.602 9.51957C121.137 9.51957 122.233 10.5843 122.233 11.995C122.233 13.4056 121.106 14.4703 119.602 14.4703ZM121.622 32.2352H117.612C117.47 32.2352 117.393 32.1575 117.393 32.0157V16.8525C117.393 16.7106 117.47 16.6329 117.612 16.6329H121.622C121.764 16.6329 121.842 16.7106 121.842 16.8525V32.0157C121.842 32.1575 121.764 32.2352 121.622 32.2352ZM77.8214 20.1109C75.5655 20.1109 73.9062 21.9587 73.1854 24.3719C73.9043 26.6588 75.6763 28.7262 77.8214 28.7262C79.9664 28.7262 81.4548 27.0668 81.4548 24.403C81.4548 21.7391 80.0772 20.1109 77.8214 20.1109Z" fill="#BBBBBB"/>
</svg>